<svg viewBox="0 0 1200 800" xmlns="http://www.w3.org/2000/svg">
  <defs>
    <style>
      .input-box { fill: #e8f4fd; stroke: #1f77b4; stroke-width: 2; }
      .process-box { fill: #fff2cc; stroke: #d6b656; stroke-width: 2; }
      .output-box { fill: #d5e8d4; stroke: #82b366; stroke-width: 2; }
      .qc-box { fill: #ffe6cc; stroke: #d79b00; stroke-width: 2; }
      .text { font-family: Arial, sans-serif; font-size: 11px; text-anchor: middle; }
      .title-text { font-family: Arial, sans-serif; font-size: 14px; font-weight: bold; text-anchor: middle; }
      .arrow { stroke: #333; stroke-width: 2; fill: none; marker-end: url(#arrowhead); }
      .branch-arrow { stroke: #666; stroke-width: 1.5; fill: none; marker-end: url(#arrowhead); }
    </style>
    <marker id="arrowhead" markerWidth="10" markerHeight="7" refX="9" refY="3.5" orient="auto">
      <polygon points="0 0, 10 3.5, 0 7" fill="#333" />
    </marker>
  </defs>
  
  <!-- Title -->
  <text x="600" y="25" class="title-text" fill="#2c3e50">ASENext Pipeline Workflow</text>
  
  <!-- Input Files -->
  <rect x="50" y="50" width="120" height="40" class="input-box" rx="5"/>
  <text x="110" y="70" class="text">RNA-seq FASTQ</text>
  <text x="110" y="82" class="text">(with UMIs)</text>
  
  <rect x="200" y="50" width="120" height="40" class="input-box" rx="5"/>
  <text x="260" y="70" class="text">VCF Files</text>
  <text x="260" y="82" class="text">(Variants)</text>
  
  <rect x="350" y="50" width="120" height="40" class="input-box" rx="5"/>
  <text x="410" y="70" class="text">Reference</text>
  <text x="410" y="82" class="text">Genome + GTF</text>
  
  <!-- Input Validation -->
  <rect x="175" y="120" width="120" height="30" class="process-box" rx="5"/>
  <text x="235" y="140" class="text">Input Validation</text>
  
  <!-- Quality Control Branch -->
  <rect x="50" y="180" width="100" height="30" class="qc-box" rx="5"/>
  <text x="100" y="200" class="text">FastQC</text>
  
  <!-- VCF Preparation -->
  <rect x="200" y="180" width="120" height="30" class="process-box" rx="5"/>
  <text x="260" y="200" class="text">VCF Preparation</text>
  
  <!-- STAR-WASP Alignment -->
  <rect x="175" y="240" width="120" height="40" class="process-box" rx="5"/>
  <text x="235" y="260" class="text">STAR-WASP</text>
  <text x="235" y="272" class="text">Alignment</text>
  
  <!-- WASP Filtering -->
  <rect x="175" y="310" width="120" height="30" class="process-box" rx="5"/>
  <text x="235" y="330" class="text">WASP Filtering</text>
  
  <!-- Sorting and Indexing -->
  <rect x="175" y="370" width="120" height="30" class="process-box" rx="5"/>
  <text x="235" y="390" class="text">Sort & Index BAM</text>
  
  <!-- UMI Deduplication -->
  <rect x="175" y="430" width="120" height="30" class="process-box" rx="5"/>
  <text x="235" y="450" class="text">UMI Deduplication</text>
  
  <!-- Final BAM processing -->
  <rect x="175" y="490" width="120" height="30" class="process-box" rx="5"/>
  <text x="235" y="510" class="text">Final BAM Index</text>
  
  <!-- VCF Processing Branch -->
  <rect x="400" y="240" width="120" height="30" class="process-box" rx="5"/>
  <text x="460" y="260" class="text">Chromosome Extract</text>
  
  <!-- Beagle References -->
  <rect x="550" y="180" width="100" height="30" class="input-box" rx="5"/>
  <text x="600" y="200" class="text">Beagle Ref</text>
  
  <rect x="680" y="180" width="100" height="30" class="input-box" rx="5"/>
  <text x="730" y="200" class="text">Genetic Map</text>
  
  <!-- Beagle Phasing -->
  <rect x="575" y="240" width="120" height="40" class="process-box" rx="5"/>
  <text x="635" y="260" class="text">Beagle</text>
  <text x="635" y="272" class="text">Haplotype Phasing</text>
  
  <!-- VCF Indexing -->
  <rect x="575" y="310" width="120" height="30" class="process-box" rx="5"/>
  <text x="635" y="330" class="text">VCF Indexing</text>
  
  <!-- Phaser Analysis -->
  <rect x="350" y="580" width="120" height="40" class="process-box" rx="5"/>
  <text x="410" y="600" class="text">Phaser</text>
  <text x="410" y="612" class="text">ASE Analysis</text>
  
  <!-- Gene Features -->
  <rect x="200" y="550" width="100" height="30" class="input-box" rx="5"/>
  <text x="250" y="570" class="text">Gene Features</text>
  
  <!-- Gene-level ASE -->
  <rect x="350" y="650" width="120" height="30" class="process-box" rx="5"/>
  <text x="410" y="670" class="text">Gene-level ASE</text>
  
  <!-- ASE Gene Extraction -->
  <rect x="350" y="710" width="120" height="30" class="process-box" rx="5"/>
  <text x="410" y="730" class="text">ASE Gene Extract</text>
  
  <!-- MultiQC -->
  <rect x="850" y="400" width="100" height="40" class="qc-box" rx="5"/>
  <text x="900" y="420" class="text">MultiQC</text>
  <text x="900" y="432" class="text">Report</text>
  
  <!-- Final Outputs -->
  <rect x="550" y="710" width="120" height="30" class="output-box" rx="5"/>
  <text x="610" y="730" class="text">ASE Results</text>
  
  <rect x="700" y="710" width="120" height="30" class="output-box" rx="5"/>
  <text x="760" y="730" class="text">QC Reports</text>
  
  <!-- Arrows -->
  <!-- Input to validation -->
  <line x1="110" y1="90" x2="110" y2="115" class="arrow"/>
  <line x1="260" y1="90" x2="260" y2="115" class="arrow"/>
  <line x1="110" y1="115" x2="220" y2="115" class="arrow"/>
  <line x1="260" y1="115" x2="250" y2="115" class="arrow"/>
  <line x1="235" y1="120" x2="235" y2="115" class="arrow"/>
  
  <!-- Validation to processes -->
  <line x1="235" y1="150" x2="235" y2="170" class="arrow"/>
  
  <!-- FastQC branch -->
  <line x1="185" y1="170" x2="100" y2="170" class="branch-arrow"/>
  <line x1="100" y1="170" x2="100" y2="180" class="branch-arrow"/>
  
  <!-- VCF prep to downstream -->
  <line x1="260" y1="180" x2="260" y2="170" class="arrow"/>
  <line x1="260" y1="210" x2="260" y2="230" class="arrow"/>
  
  <!-- Reference input -->
  <line x1="410" y1="90" x2="410" y2="230" class="arrow"/>
  <line x1="350" y1="230" x2="295" y2="230" class="arrow"/>
  
  <!-- STAR-WASP to filtering -->
  <line x1="235" y1="280" x2="235" y2="310" class="arrow"/>
  
  <!-- Processing chain -->
  <line x1="235" y1="340" x2="235" y2="370" class="arrow"/>
  <line x1="235" y1="400" x2="235" y2="430" class="arrow"/>
  <line x1="235" y1="460" x2="235" y2="490" class="arrow"/>
  
  <!-- VCF branch to Beagle -->
  <line x1="320" y1="190" x2="400" y2="190" class="arrow"/>
  <line x1="400" y1="190" x2="400" y2="240" class="arrow"/>
  <line x1="460" y1="240" x2="460" y2="190" class="arrow"/>
  <line x1="520" y1="190" x2="575" y2="190" class="arrow"/>
  <line x1="575" y1="190" x2="575" y2="240" class="arrow"/>
  
  <!-- Beagle references -->
  <line x1="600" y1="210" x2="600" y2="240" class="branch-arrow"/>
  <line x1="730" y1="210" x2="730" y2="240" class="branch-arrow"/>
  <line x1="695" y1="240" x2="730" y2="240" class="branch-arrow"/>
  
  <!-- Beagle to indexing -->
  <line x1="635" y1="280" x2="635" y2="310" class="arrow"/>
  
  <!-- To Phaser -->
  <line x1="235" y1="520" x2="235" y2="560" class="arrow"/>
  <line x1="635" y1="340" x2="635" y2="560" class="arrow"/>
  <line x1="235" y1="560" x2="350" y2="560" class="arrow"/>
  <line x1="635" y1="560" x2="470" y2="560" class="arrow"/>
  <line x1="410" y1="560" x2="410" y2="580" class="arrow"/>
  
  <!-- Gene features -->
  <line x1="250" y1="580" x2="250" y2="640" class="arrow"/>
  <line x1="300" y1="640" x2="350" y2="640" class="arrow"/>
  <line x1="350" y1="640" x2="350" y2="650" class="arrow"/>
  
  <!-- Phaser chain -->
  <line x1="410" y1="620" x2="410" y2="650" class="arrow"/>
  <line x1="410" y1="680" x2="410" y2="710" class="arrow"/>
  
  <!-- To outputs -->
  <line x1="470" y1="725" x2="550" y2="725" class="arrow"/>
  
  <!-- QC to MultiQC -->
  <line x1="150" y1="195" x2="850" y2="195" class="branch-arrow"/>
  <line x1="850" y1="195" x2="850" y2="400" class="branch-arrow"/>
  <line x1="850" y1="400" x2="850" y2="400" class="branch-arrow"/>
  
  <!-- MultiQC to output -->
  <line x1="900" y1="440" x2="900" y2="700" class="arrow"/>
  <line x1="820" y1="700" x2="900" y2="700" class="arrow"/>
  <line x1="820" y1="700" x2="820" y2="710" class="arrow"/>
  
  <!-- Workflow stages labels -->
  <text x="50" y="150" class="text" font-weight="bold" fill="#7f8c8d">QC</text>
  <text x="350" y="150" class="text" font-weight="bold" fill="#7f8c8d">Input Processing</text>
  <text x="120" y="350" class="text" font-weight="bold" fill="#7f8c8d">Alignment &amp; Filtering</text>
  <text x="750" y="150" class="text" font-weight="bold" fill="#7f8c8d">Haplotype Phasing</text>
  <text x="300" y="630" class="text" font-weight="bold" fill="#7f8c8d">ASE Analysis</text>
  <text x="750" y="680" class="text" font-weight="bold" fill="#7f8c8d">Results</text>
</svg>